<svg xmlns="http://www.w3.org/2000/svg" viewBox="0 0 187.15 50"><defs><style>.cls-1{fill:#fff;}.cls-2{fill:#4fb93f;}</style></defs><title>Zasób 5</title><g id="Warstwa_2" data-name="Warstwa 2"><g id="Warstwa_1-2" data-name="Warstwa 1"><path class="cls-1" d="M18.12,9.91V37.3H14.6a1.34,1.34,0,0,1-1.39-.95l-.44-1.45A11.16,11.16,0,0,1,11.58,36a7.42,7.42,0,0,1-1.34.85,7,7,0,0,1-1.56.55,7.83,7.83,0,0,1-1.8.19,5.81,5.81,0,0,1-2.74-.66A6.25,6.25,0,0,1,2,35,9.59,9.59,0,0,1,.52,32,14.68,14.68,0,0,1,0,27.88a12.58,12.58,0,0,1,.59-3.95,9.83,9.83,0,0,1,1.65-3.15,7.79,7.79,0,0,1,2.57-2.07A7.33,7.33,0,0,1,8.13,18a6.46,6.46,0,0,1,2.48.42,6.9,6.9,0,0,1,1.83,1.13V9.91Zm-5.68,13.5a3.51,3.51,0,0,0-1.39-1,4.37,4.37,0,0,0-1.57-.28A3.31,3.31,0,0,0,8,22.44a2.92,2.92,0,0,0-1.14,1,5.33,5.33,0,0,0-.76,1.78,11.29,11.29,0,0,0-.27,2.66,12,12,0,0,0,.22,2.52,5.15,5.15,0,0,0,.61,1.66,2.3,2.3,0,0,0,.94.9,2.65,2.65,0,0,0,1.23.28A4.81,4.81,0,0,0,10,33.12a3.69,3.69,0,0,0,1.72-.9,6.19,6.19,0,0,0,.74-.78Z"/><path class="cls-1" d="M25.71,28.83a5.37,5.37,0,0,0,1.45,3.45,4.3,4.3,0,0,0,3,1.07,5.41,5.41,0,0,0,1.7-.24,9.53,9.53,0,0,0,1.27-.53l1-.53a2.15,2.15,0,0,1,1-.24,1.18,1.18,0,0,1,1,.49l1.64,2A8.2,8.2,0,0,1,35.93,36a10,10,0,0,1-2.09,1,11.64,11.64,0,0,1-2.14.5,16.2,16.2,0,0,1-2,.13,10.51,10.51,0,0,1-3.74-.65A8.6,8.6,0,0,1,22.86,35a9,9,0,0,1-2.06-3.18A11.85,11.85,0,0,1,20,27.4a9.92,9.92,0,0,1,.65-3.61,8.71,8.71,0,0,1,4.81-5A9.74,9.74,0,0,1,29.41,18a9.84,9.84,0,0,1,3.45.59,7.43,7.43,0,0,1,2.69,1.7,7.68,7.68,0,0,1,1.75,2.73,10.09,10.09,0,0,1,.63,3.67,7.65,7.65,0,0,1,0,1.05,1.72,1.72,0,0,1-.2.64.86.86,0,0,1-.4.33,1.83,1.83,0,0,1-.63.09Zm7.14-3.3a4.76,4.76,0,0,0-.18-1.31,3.16,3.16,0,0,0-.56-1.15,3,3,0,0,0-1-.81A3.48,3.48,0,0,0,29.52,22a3.38,3.38,0,0,0-2.53.92,4.85,4.85,0,0,0-1.21,2.66Z"/><path class="cls-1" d="M57.18,18.32l-7.35,19H44.67l-7.36-19H42a1.75,1.75,0,0,1,1,.29,1.45,1.45,0,0,1,.56.7l2.63,8.51c.23.7.44,1.37.61,2s.34,1.32.47,2a29.78,29.78,0,0,1,1.12-4l2.74-8.51a1.43,1.43,0,0,1,.55-.7,1.62,1.62,0,0,1,1-.29Z"/><path class="cls-1" d="M62.14,28.83a5.42,5.42,0,0,0,1.45,3.45,4.32,4.32,0,0,0,3,1.07,5.36,5.36,0,0,0,1.7-.24,9,9,0,0,0,1.27-.53l1-.53a2.09,2.09,0,0,1,1-.24,1.16,1.16,0,0,1,1,.49l1.65,2A8.45,8.45,0,0,1,72.36,36a9.87,9.87,0,0,1-2.08,1,12,12,0,0,1-2.14.5,16.44,16.44,0,0,1-2,.13,10.56,10.56,0,0,1-3.75-.65A8.47,8.47,0,0,1,59.3,35a9.13,9.13,0,0,1-2.07-3.18,11.85,11.85,0,0,1-.76-4.43,10.13,10.13,0,0,1,.65-3.61,8.79,8.79,0,0,1,4.81-5,10.48,10.48,0,0,1,7.36-.16A7.43,7.43,0,0,1,72,20.32a7.7,7.7,0,0,1,1.76,2.73,10.09,10.09,0,0,1,.63,3.67,7.43,7.43,0,0,1-.06,1.05,1.56,1.56,0,0,1-.2.64.89.89,0,0,1-.39.33,1.91,1.91,0,0,1-.63.09Zm7.14-3.3a5.17,5.17,0,0,0-.17-1.31,3.35,3.35,0,0,0-.57-1.15,3,3,0,0,0-1-.81A3.53,3.53,0,0,0,66,22a3.39,3.39,0,0,0-2.53.92,4.78,4.78,0,0,0-1.2,2.66Z"/><path class="cls-1" d="M82,9.91V37.3H76.29V9.91Z"/><path class="cls-1" d="M93.64,18a11,11,0,0,1,3.93.68,8.46,8.46,0,0,1,5,5,11.08,11.08,0,0,1,.71,4.06,11.29,11.29,0,0,1-.71,4.09,8.5,8.5,0,0,1-5,5,11,11,0,0,1-3.93.68,11.13,11.13,0,0,1-4-.68,8.83,8.83,0,0,1-3.07-2,8.57,8.57,0,0,1-2-3.09,11.29,11.29,0,0,1-.71-4.09,11.08,11.08,0,0,1,.71-4.06,8.45,8.45,0,0,1,2-3.06,8.78,8.78,0,0,1,3.07-1.94A11.13,11.13,0,0,1,93.64,18Zm0,15.35A3.23,3.23,0,0,0,96.52,32a7.69,7.69,0,0,0,.92-4.2,7.66,7.66,0,0,0-.92-4.19,3.25,3.25,0,0,0-2.88-1.37,3.31,3.31,0,0,0-3,1.37,7.56,7.56,0,0,0-.93,4.19,7.6,7.6,0,0,0,.93,4.2A3.3,3.3,0,0,0,93.64,33.38Z"/><path class="cls-2" d="M182.65,22.65c3,0,4.5-.91,4.5-2.75a1.44,1.44,0,0,0-.28-1,1.22,1.22,0,0,0-.91-.28H181.5a13.94,13.94,0,0,0,5.18-10.75,6.65,6.65,0,0,0-1-3.7,3,3,0,0,0-2.63-1.47,5.73,5.73,0,0,0-4.24,2.15,18,18,0,0,0-3.36,5.77,38.49,38.49,0,0,0-2.07,8h-2.27c-1.19,0-1.79.74-1.79,2.23a1.94,1.94,0,0,0,.42,1.39,2.17,2.17,0,0,0,1.61.44h1.55q-.12,1.8-.12,3.54v.09h-.08c-.24,0-.48,0-.71,0l-.68.08a24.62,24.62,0,0,1-3.54.28,7,7,0,0,1-.84,0c-.74-.05-1.38-.08-1.91-.08a1.54,1.54,0,0,0-1,.6,5.45,5.45,0,0,0-.93,1.39,2.73,2.73,0,0,0-.34,1.32q.72,3.22,1.13,6.13a41.9,41.9,0,0,1,.42,6c0,2.76-.4,4.14-1.19,4.14-.43,0-.73-1.44-.92-4.32S162,36.13,162,33.4c0-2,.14-4.25.4-6.85q11.19-11,11.19-20.38a8.33,8.33,0,0,0-1.06-4.5A3.29,3.29,0,0,0,169.56,0q-3.47,0-6.35,5.16a45.84,45.84,0,0,0-4.54,13,77.83,77.83,0,0,0-1.58,12.32c-.67.76-1.24,1.35-1.7,1.78a3,3,0,0,1-1.84,1,1,1,0,0,1-.77-.36,1.44,1.44,0,0,1-.3-1,37.64,37.64,0,0,1,.92-6.37,31.09,31.09,0,0,0,.59-4c0-.93-.65-1.4-2-1.4a9.9,9.9,0,0,0-1.75.16,2.78,2.78,0,0,0-.5-1.21,1.53,1.53,0,0,0-1.17-.34,8.91,8.91,0,0,0-5.2,1.73,12.6,12.6,0,0,0-3.92,4.58,14.55,14.55,0,0,0-.69,1.58,2.9,2.9,0,0,1-1.62.67c-.66,0-1-.47-1-1.39a13.67,13.67,0,0,1,.32-2,19.82,19.82,0,0,0,.36-2.5,2.29,2.29,0,0,0-2.59-2.59,5.82,5.82,0,0,0-2.89.91,11.62,11.62,0,0,0-3.2,3.07,22.67,22.67,0,0,0-2.95,5.57,29.29,29.29,0,0,1,.4-2.94c.16-.8.37-1.73.64-2.79a15.47,15.47,0,0,0,.59-2.87.79.79,0,0,0-.32-.75,2.25,2.25,0,0,0-1.11-.2,4.13,4.13,0,0,0-2.29.54A3,3,0,0,0,122,21.1a32.16,32.16,0,0,0-1.46,9,13,13,0,0,1-2.78,2.23,7.13,7.13,0,0,1-3.53,1.1q-4,0-4-4.62a9.35,9.35,0,0,1,.48-3.06A5.68,5.68,0,0,1,112,23.59a2.35,2.35,0,0,1,1.71-.82.94.94,0,0,1,.73.28,1.1,1.1,0,0,1,.26.8,3.35,3.35,0,0,1-.2,1.11c0,.11-.06.28-.12.52a3.19,3.19,0,0,0-.08.63,1.21,1.21,0,0,0,.46,1,1.92,1.92,0,0,0,1.22.36,2.22,2.22,0,0,0,1.93-1.16,5.15,5.15,0,0,0,.73-2.82,4.67,4.67,0,0,0-1.21-3.33A4.46,4.46,0,0,0,114,18.87a7.74,7.74,0,0,0-4.25,1.31,9.72,9.72,0,0,0-3.31,3.75,12,12,0,0,0-1.27,5.65,8,8,0,0,0,2.17,5.83,8.12,8.12,0,0,0,6.07,2.21,11.62,11.62,0,0,0,5-1.25,12.49,12.49,0,0,0,2.39-1.5,8.28,8.28,0,0,0,.32,1.16,2.17,2.17,0,0,0,2.13,1.59,2.28,2.28,0,0,0,1.81-.66,6.25,6.25,0,0,0,1-2.53,28.69,28.69,0,0,1,1.55-4.61,19,19,0,0,1,1.93-3.53c.65-.89,1.17-1.33,1.57-1.33s.44.21.44.64c0,.18,0,.54-.08,1.07a6.11,6.11,0,0,0-.12,1.2,3.87,3.87,0,0,0,1.1,2.9,4.36,4.36,0,0,0,3.2,1.08,6.54,6.54,0,0,0,2.36-.44,7,7,0,0,0,1.46,4.42,4.86,4.86,0,0,0,3.94,1.79c2.1,0,3.84-1.12,5.22-3.34a5.4,5.4,0,0,0,1.65,2.44,3.7,3.7,0,0,0,2.41.9,5.88,5.88,0,0,0,3.54-1.39c.26-.2.52-.42.78-.64a40.83,40.83,0,0,0,1.19,10.35Q159.45,50,162.31,50A4.16,4.16,0,0,0,166,47.73a12.64,12.64,0,0,0,1.4-6.57,44.72,44.72,0,0,0-.34-4.95c-.23-2-.51-3.83-.86-5.48a15.16,15.16,0,0,0,2.75.36c2,0,3.4-.39,4.18-1.17a13.87,13.87,0,0,0,1.47,4.53,5.9,5.9,0,0,0,5.54,3.17,7.16,7.16,0,0,0,4.69-1.71,3,3,0,0,0,.9-1.2,3.75,3.75,0,0,0,.3-1.47,2.59,2.59,0,0,0-.3-1.29.89.89,0,0,0-.78-.54,1.28,1.28,0,0,0-.87.4,6.38,6.38,0,0,1-1.59,1,3.74,3.74,0,0,1-1.52.4,2.6,2.6,0,0,1-1.93-.7,4.37,4.37,0,0,1-1-2.31,25.71,25.71,0,0,1-.3-4.47c0-.75,0-1.78.08-3.11Zm-3.36-10.53A21.71,21.71,0,0,1,180.68,8c.49-1,.94-1.49,1.34-1.49.58,0,.87.78.87,2.35a11.11,11.11,0,0,1-1.17,4.6A13.61,13.61,0,0,1,178.2,18,54.73,54.73,0,0,1,179.29,12.12Zm-14.43.68A45.12,45.12,0,0,1,167,6.37q1.05-2.43,1.77-2.43c.66,0,1,.81,1,2.43A19,19,0,0,1,168,13.71a29.42,29.42,0,0,1-4.9,7.55Q163.82,16.81,164.86,12.8Zm-17.16,17a6.71,6.71,0,0,1-1.15,2.74,2.19,2.19,0,0,1-1.67,1,1.69,1.69,0,0,1-1.38-.6,2.84,2.84,0,0,1-.49-1.83,10.73,10.73,0,0,1,.83-4.22,8.46,8.46,0,0,1,2.25-3.2,4.84,4.84,0,0,1,3.09-1.26Z"/></g></g></svg>